<mxfile host="app.diagrams.net" modified="2023-10-16T21:01:47.542Z" agent="Mozilla/5.0 (Windows NT 10.0; Win64; x64) AppleWebKit/537.36 (KHTML, like Gecko) Chrome/117.0.0.0 Safari/537.36 Edg/117.0.2045.60" etag="FRYgOOFf6Hbe5-mOOKVx" version="22.0.4" type="device">
  <diagram id="C5RBs43oDa-KdzZeNtuy" name="Page-1">
    <mxGraphModel dx="1424" dy="755" grid="1" gridSize="10" guides="1" tooltips="1" connect="1" arrows="1" fold="1" page="1" pageScale="1" pageWidth="827" pageHeight="1169" math="0" shadow="0">
      <root>
        <mxCell id="WIyWlLk6GJQsqaUBKTNV-0" />
        <mxCell id="WIyWlLk6GJQsqaUBKTNV-1" parent="WIyWlLk6GJQsqaUBKTNV-0" />
        <mxCell id="yx8-Jv_AAqIwQ5a-q-sv-0" value="" style="swimlane;startSize=0;" vertex="1" parent="WIyWlLk6GJQsqaUBKTNV-1">
          <mxGeometry x="29" y="50" width="770" height="200" as="geometry" />
        </mxCell>
        <mxCell id="yx8-Jv_AAqIwQ5a-q-sv-6" value="View" style="text;html=1;align=center;verticalAlign=middle;resizable=0;points=[];autosize=1;strokeColor=none;fillColor=none;" vertex="1" parent="yx8-Jv_AAqIwQ5a-q-sv-0">
          <mxGeometry x="21" width="50" height="30" as="geometry" />
        </mxCell>
        <mxCell id="yx8-Jv_AAqIwQ5a-q-sv-7" value="frontend-client&lt;br&gt;" style="shape=folder;fontStyle=1;spacingTop=10;tabWidth=40;tabHeight=14;tabPosition=left;html=1;whiteSpace=wrap;" vertex="1" parent="yx8-Jv_AAqIwQ5a-q-sv-0">
          <mxGeometry x="11" y="40" width="729" height="140" as="geometry" />
        </mxCell>
        <mxCell id="yx8-Jv_AAqIwQ5a-q-sv-10" value="images" style="html=1;whiteSpace=wrap;" vertex="1" parent="yx8-Jv_AAqIwQ5a-q-sv-0">
          <mxGeometry x="471" y="85" width="110" height="50" as="geometry" />
        </mxCell>
        <mxCell id="yx8-Jv_AAqIwQ5a-q-sv-9" value="CSS" style="html=1;whiteSpace=wrap;" vertex="1" parent="yx8-Jv_AAqIwQ5a-q-sv-0">
          <mxGeometry x="191" y="120" width="110" height="50" as="geometry" />
        </mxCell>
        <mxCell id="yx8-Jv_AAqIwQ5a-q-sv-8" value="html" style="html=1;whiteSpace=wrap;" vertex="1" parent="yx8-Jv_AAqIwQ5a-q-sv-0">
          <mxGeometry x="191" y="60" width="110" height="50" as="geometry" />
        </mxCell>
        <mxCell id="yx8-Jv_AAqIwQ5a-q-sv-2" value="" style="swimlane;startSize=0;" vertex="1" parent="WIyWlLk6GJQsqaUBKTNV-1">
          <mxGeometry x="29" y="320" width="770" height="200" as="geometry" />
        </mxCell>
        <mxCell id="yx8-Jv_AAqIwQ5a-q-sv-5" value="Logic" style="text;html=1;align=center;verticalAlign=middle;resizable=0;points=[];autosize=1;strokeColor=none;fillColor=none;" vertex="1" parent="yx8-Jv_AAqIwQ5a-q-sv-2">
          <mxGeometry x="21" width="50" height="30" as="geometry" />
        </mxCell>
        <mxCell id="yx8-Jv_AAqIwQ5a-q-sv-38" value="ProductService" style="swimlane;fontStyle=1;align=center;verticalAlign=top;childLayout=stackLayout;horizontal=1;startSize=26;horizontalStack=0;resizeParent=1;resizeParentMax=0;resizeLast=0;collapsible=1;marginBottom=0;whiteSpace=wrap;html=1;" vertex="1" parent="yx8-Jv_AAqIwQ5a-q-sv-2">
          <mxGeometry x="51" y="40" width="229" height="112" as="geometry" />
        </mxCell>
        <mxCell id="yx8-Jv_AAqIwQ5a-q-sv-39" value="- productsRepo: ProductsRepo" style="text;strokeColor=none;fillColor=none;align=left;verticalAlign=top;spacingLeft=4;spacingRight=4;overflow=hidden;rotatable=0;points=[[0,0.5],[1,0.5]];portConstraint=eastwest;whiteSpace=wrap;html=1;" vertex="1" parent="yx8-Jv_AAqIwQ5a-q-sv-38">
          <mxGeometry y="26" width="229" height="26" as="geometry" />
        </mxCell>
        <mxCell id="yx8-Jv_AAqIwQ5a-q-sv-42" value="- ordersRepo: OrdersRepo" style="text;strokeColor=none;fillColor=none;align=left;verticalAlign=top;spacingLeft=4;spacingRight=4;overflow=hidden;rotatable=0;points=[[0,0.5],[1,0.5]];portConstraint=eastwest;whiteSpace=wrap;html=1;" vertex="1" parent="yx8-Jv_AAqIwQ5a-q-sv-38">
          <mxGeometry y="52" width="229" height="26" as="geometry" />
        </mxCell>
        <mxCell id="yx8-Jv_AAqIwQ5a-q-sv-40" value="" style="line;strokeWidth=1;fillColor=none;align=left;verticalAlign=middle;spacingTop=-1;spacingLeft=3;spacingRight=3;rotatable=0;labelPosition=right;points=[];portConstraint=eastwest;strokeColor=inherit;" vertex="1" parent="yx8-Jv_AAqIwQ5a-q-sv-38">
          <mxGeometry y="78" width="229" height="8" as="geometry" />
        </mxCell>
        <mxCell id="yx8-Jv_AAqIwQ5a-q-sv-41" value="+ makeOrder(String, Product): Order" style="text;strokeColor=none;fillColor=none;align=left;verticalAlign=top;spacingLeft=4;spacingRight=4;overflow=hidden;rotatable=0;points=[[0,0.5],[1,0.5]];portConstraint=eastwest;whiteSpace=wrap;html=1;" vertex="1" parent="yx8-Jv_AAqIwQ5a-q-sv-38">
          <mxGeometry y="86" width="229" height="26" as="geometry" />
        </mxCell>
        <mxCell id="yx8-Jv_AAqIwQ5a-q-sv-43" value="" style="endArrow=diamondThin;endFill=0;endSize=24;html=1;rounded=0;entryX=0.456;entryY=1.019;entryDx=0;entryDy=0;entryPerimeter=0;exitX=0;exitY=0.5;exitDx=0;exitDy=0;" edge="1" parent="yx8-Jv_AAqIwQ5a-q-sv-2" source="yx8-Jv_AAqIwQ5a-q-sv-29">
          <mxGeometry width="160" relative="1" as="geometry">
            <mxPoint x="358.04" y="368.51" as="sourcePoint" />
            <mxPoint x="181.00000000000003" y="152.0039999999999" as="targetPoint" />
            <Array as="points">
              <mxPoint x="271" y="593" />
              <mxPoint x="271" y="300" />
              <mxPoint x="181" y="250" />
            </Array>
          </mxGeometry>
        </mxCell>
        <mxCell id="yx8-Jv_AAqIwQ5a-q-sv-45" value="ProductControlller" style="swimlane;fontStyle=1;align=center;verticalAlign=top;childLayout=stackLayout;horizontal=1;startSize=26;horizontalStack=0;resizeParent=1;resizeParentMax=0;resizeLast=0;collapsible=1;marginBottom=0;whiteSpace=wrap;html=1;" vertex="1" parent="yx8-Jv_AAqIwQ5a-q-sv-2">
          <mxGeometry x="361" y="40" width="249" height="86" as="geometry" />
        </mxCell>
        <mxCell id="yx8-Jv_AAqIwQ5a-q-sv-47" value="- productService: ProductService" style="text;strokeColor=none;fillColor=none;align=left;verticalAlign=top;spacingLeft=4;spacingRight=4;overflow=hidden;rotatable=0;points=[[0,0.5],[1,0.5]];portConstraint=eastwest;whiteSpace=wrap;html=1;" vertex="1" parent="yx8-Jv_AAqIwQ5a-q-sv-45">
          <mxGeometry y="26" width="249" height="26" as="geometry" />
        </mxCell>
        <mxCell id="yx8-Jv_AAqIwQ5a-q-sv-48" value="" style="line;strokeWidth=1;fillColor=none;align=left;verticalAlign=middle;spacingTop=-1;spacingLeft=3;spacingRight=3;rotatable=0;labelPosition=right;points=[];portConstraint=eastwest;strokeColor=inherit;" vertex="1" parent="yx8-Jv_AAqIwQ5a-q-sv-45">
          <mxGeometry y="52" width="249" height="8" as="geometry" />
        </mxCell>
        <mxCell id="yx8-Jv_AAqIwQ5a-q-sv-63" value="+ makeOrder(String, Product): Order" style="text;strokeColor=none;fillColor=none;align=left;verticalAlign=top;spacingLeft=4;spacingRight=4;overflow=hidden;rotatable=0;points=[[0,0.5],[1,0.5]];portConstraint=eastwest;whiteSpace=wrap;html=1;" vertex="1" parent="yx8-Jv_AAqIwQ5a-q-sv-45">
          <mxGeometry y="60" width="249" height="26" as="geometry" />
        </mxCell>
        <mxCell id="yx8-Jv_AAqIwQ5a-q-sv-50" value="" style="endArrow=diamondThin;endFill=0;endSize=24;html=1;rounded=0;" edge="1" parent="yx8-Jv_AAqIwQ5a-q-sv-2">
          <mxGeometry width="160" relative="1" as="geometry">
            <mxPoint x="281" y="96" as="sourcePoint" />
            <mxPoint x="361" y="95.5" as="targetPoint" />
          </mxGeometry>
        </mxCell>
        <mxCell id="yx8-Jv_AAqIwQ5a-q-sv-3" value="" style="swimlane;startSize=0;" vertex="1" parent="WIyWlLk6GJQsqaUBKTNV-1">
          <mxGeometry x="30" y="590" width="769" height="550" as="geometry" />
        </mxCell>
        <mxCell id="yx8-Jv_AAqIwQ5a-q-sv-4" value="Data" style="text;html=1;align=center;verticalAlign=middle;resizable=0;points=[];autosize=1;strokeColor=none;fillColor=none;" vertex="1" parent="yx8-Jv_AAqIwQ5a-q-sv-3">
          <mxGeometry x="21" width="50" height="30" as="geometry" />
        </mxCell>
        <mxCell id="yx8-Jv_AAqIwQ5a-q-sv-11" value="&lt;br&gt;&lt;br&gt;&lt;br&gt;entity" style="shape=folder;fontStyle=1;spacingTop=10;tabWidth=40;tabHeight=14;tabPosition=left;html=1;whiteSpace=wrap;" vertex="1" parent="yx8-Jv_AAqIwQ5a-q-sv-3">
          <mxGeometry x="11" y="40" width="200" height="500" as="geometry" />
        </mxCell>
        <mxCell id="yx8-Jv_AAqIwQ5a-q-sv-12" value="&lt;b&gt;Product&lt;/b&gt;" style="swimlane;fontStyle=0;childLayout=stackLayout;horizontal=1;startSize=26;fillColor=none;horizontalStack=0;resizeParent=1;resizeParentMax=0;resizeLast=0;collapsible=1;marginBottom=0;whiteSpace=wrap;html=1;" vertex="1" parent="yx8-Jv_AAqIwQ5a-q-sv-3">
          <mxGeometry x="21" y="70" width="140" height="216" as="geometry" />
        </mxCell>
        <mxCell id="yx8-Jv_AAqIwQ5a-q-sv-13" value="- id: int" style="text;strokeColor=none;fillColor=none;align=left;verticalAlign=top;spacingLeft=4;spacingRight=4;overflow=hidden;rotatable=0;points=[[0,0.5],[1,0.5]];portConstraint=eastwest;whiteSpace=wrap;html=1;" vertex="1" parent="yx8-Jv_AAqIwQ5a-q-sv-12">
          <mxGeometry y="26" width="140" height="26" as="geometry" />
        </mxCell>
        <mxCell id="yx8-Jv_AAqIwQ5a-q-sv-14" value="- title: string" style="text;strokeColor=none;fillColor=none;align=left;verticalAlign=top;spacingLeft=4;spacingRight=4;overflow=hidden;rotatable=0;points=[[0,0.5],[1,0.5]];portConstraint=eastwest;whiteSpace=wrap;html=1;" vertex="1" parent="yx8-Jv_AAqIwQ5a-q-sv-12">
          <mxGeometry y="52" width="140" height="26" as="geometry" />
        </mxCell>
        <mxCell id="yx8-Jv_AAqIwQ5a-q-sv-15" value="- price: int" style="text;strokeColor=none;fillColor=none;align=left;verticalAlign=top;spacingLeft=4;spacingRight=4;overflow=hidden;rotatable=0;points=[[0,0.5],[1,0.5]];portConstraint=eastwest;whiteSpace=wrap;html=1;" vertex="1" parent="yx8-Jv_AAqIwQ5a-q-sv-12">
          <mxGeometry y="78" width="140" height="26" as="geometry" />
        </mxCell>
        <mxCell id="yx8-Jv_AAqIwQ5a-q-sv-52" value="- copies_available: int" style="text;strokeColor=none;fillColor=none;align=left;verticalAlign=top;spacingLeft=4;spacingRight=4;overflow=hidden;rotatable=0;points=[[0,0.5],[1,0.5]];portConstraint=eastwest;whiteSpace=wrap;html=1;" vertex="1" parent="yx8-Jv_AAqIwQ5a-q-sv-12">
          <mxGeometry y="104" width="140" height="26" as="geometry" />
        </mxCell>
        <mxCell id="yx8-Jv_AAqIwQ5a-q-sv-53" value="- category: string" style="text;strokeColor=none;fillColor=none;align=left;verticalAlign=top;spacingLeft=4;spacingRight=4;overflow=hidden;rotatable=0;points=[[0,0.5],[1,0.5]];portConstraint=eastwest;whiteSpace=wrap;html=1;" vertex="1" parent="yx8-Jv_AAqIwQ5a-q-sv-12">
          <mxGeometry y="130" width="140" height="26" as="geometry" />
        </mxCell>
        <mxCell id="yx8-Jv_AAqIwQ5a-q-sv-57" value="" style="line;strokeWidth=1;fillColor=none;align=left;verticalAlign=middle;spacingTop=-1;spacingLeft=3;spacingRight=3;rotatable=0;labelPosition=right;points=[];portConstraint=eastwest;strokeColor=inherit;" vertex="1" parent="yx8-Jv_AAqIwQ5a-q-sv-12">
          <mxGeometry y="156" width="140" height="8" as="geometry" />
        </mxCell>
        <mxCell id="yx8-Jv_AAqIwQ5a-q-sv-61" value="+getId(): int" style="text;strokeColor=none;fillColor=none;align=left;verticalAlign=top;spacingLeft=4;spacingRight=4;overflow=hidden;rotatable=0;points=[[0,0.5],[1,0.5]];portConstraint=eastwest;whiteSpace=wrap;html=1;" vertex="1" parent="yx8-Jv_AAqIwQ5a-q-sv-12">
          <mxGeometry y="164" width="140" height="26" as="geometry" />
        </mxCell>
        <mxCell id="yx8-Jv_AAqIwQ5a-q-sv-59" value="+getTitle(): String" style="text;strokeColor=none;fillColor=none;align=left;verticalAlign=top;spacingLeft=4;spacingRight=4;overflow=hidden;rotatable=0;points=[[0,0.5],[1,0.5]];portConstraint=eastwest;whiteSpace=wrap;html=1;" vertex="1" parent="yx8-Jv_AAqIwQ5a-q-sv-12">
          <mxGeometry y="190" width="140" height="26" as="geometry" />
        </mxCell>
        <mxCell id="yx8-Jv_AAqIwQ5a-q-sv-17" value="&lt;b&gt;Order&lt;/b&gt;" style="swimlane;fontStyle=0;childLayout=stackLayout;horizontal=1;startSize=26;fillColor=none;horizontalStack=0;resizeParent=1;resizeParentMax=0;resizeLast=0;collapsible=1;marginBottom=0;whiteSpace=wrap;html=1;" vertex="1" parent="yx8-Jv_AAqIwQ5a-q-sv-3">
          <mxGeometry x="21" y="350" width="140" height="164" as="geometry" />
        </mxCell>
        <mxCell id="yx8-Jv_AAqIwQ5a-q-sv-18" value="- id: Long" style="text;strokeColor=none;fillColor=none;align=left;verticalAlign=top;spacingLeft=4;spacingRight=4;overflow=hidden;rotatable=0;points=[[0,0.5],[1,0.5]];portConstraint=eastwest;whiteSpace=wrap;html=1;" vertex="1" parent="yx8-Jv_AAqIwQ5a-q-sv-17">
          <mxGeometry y="26" width="140" height="26" as="geometry" />
        </mxCell>
        <mxCell id="yx8-Jv_AAqIwQ5a-q-sv-19" value="- userEmail: String" style="text;strokeColor=none;fillColor=none;align=left;verticalAlign=top;spacingLeft=4;spacingRight=4;overflow=hidden;rotatable=0;points=[[0,0.5],[1,0.5]];portConstraint=eastwest;whiteSpace=wrap;html=1;" vertex="1" parent="yx8-Jv_AAqIwQ5a-q-sv-17">
          <mxGeometry y="52" width="140" height="26" as="geometry" />
        </mxCell>
        <mxCell id="yx8-Jv_AAqIwQ5a-q-sv-20" value="- orderDate: Date" style="text;strokeColor=none;fillColor=none;align=left;verticalAlign=top;spacingLeft=4;spacingRight=4;overflow=hidden;rotatable=0;points=[[0,0.5],[1,0.5]];portConstraint=eastwest;whiteSpace=wrap;html=1;" vertex="1" parent="yx8-Jv_AAqIwQ5a-q-sv-17">
          <mxGeometry y="78" width="140" height="26" as="geometry" />
        </mxCell>
        <mxCell id="yx8-Jv_AAqIwQ5a-q-sv-60" value="" style="line;strokeWidth=1;fillColor=none;align=left;verticalAlign=middle;spacingTop=-1;spacingLeft=3;spacingRight=3;rotatable=0;labelPosition=right;points=[];portConstraint=eastwest;strokeColor=inherit;" vertex="1" parent="yx8-Jv_AAqIwQ5a-q-sv-17">
          <mxGeometry y="104" width="140" height="8" as="geometry" />
        </mxCell>
        <mxCell id="yx8-Jv_AAqIwQ5a-q-sv-58" value="+getId(): Long" style="text;strokeColor=none;fillColor=none;align=left;verticalAlign=top;spacingLeft=4;spacingRight=4;overflow=hidden;rotatable=0;points=[[0,0.5],[1,0.5]];portConstraint=eastwest;whiteSpace=wrap;html=1;" vertex="1" parent="yx8-Jv_AAqIwQ5a-q-sv-17">
          <mxGeometry y="112" width="140" height="26" as="geometry" />
        </mxCell>
        <mxCell id="yx8-Jv_AAqIwQ5a-q-sv-62" value="+getUserEmail(): String" style="text;strokeColor=none;fillColor=none;align=left;verticalAlign=top;spacingLeft=4;spacingRight=4;overflow=hidden;rotatable=0;points=[[0,0.5],[1,0.5]];portConstraint=eastwest;whiteSpace=wrap;html=1;" vertex="1" parent="yx8-Jv_AAqIwQ5a-q-sv-17">
          <mxGeometry y="138" width="140" height="26" as="geometry" />
        </mxCell>
        <mxCell id="yx8-Jv_AAqIwQ5a-q-sv-21" value="repository" style="shape=folder;fontStyle=1;spacingTop=10;tabWidth=40;tabHeight=14;tabPosition=left;html=1;whiteSpace=wrap;" vertex="1" parent="yx8-Jv_AAqIwQ5a-q-sv-3">
          <mxGeometry x="295" y="40" width="275" height="310" as="geometry" />
        </mxCell>
        <mxCell id="yx8-Jv_AAqIwQ5a-q-sv-26" value="&amp;lt;&amp;lt;interface&amp;gt;&amp;gt;&lt;br&gt;OrdersRepo" style="swimlane;fontStyle=1;align=center;verticalAlign=top;childLayout=stackLayout;horizontal=1;startSize=40;horizontalStack=0;resizeParent=1;resizeParentMax=0;resizeLast=0;collapsible=1;marginBottom=0;whiteSpace=wrap;html=1;" vertex="1" parent="yx8-Jv_AAqIwQ5a-q-sv-3">
          <mxGeometry x="305" y="270" width="195" height="66" as="geometry" />
        </mxCell>
        <mxCell id="yx8-Jv_AAqIwQ5a-q-sv-29" value="+ findByUserEmail(String): Order" style="text;strokeColor=none;fillColor=none;align=left;verticalAlign=top;spacingLeft=4;spacingRight=4;overflow=hidden;rotatable=0;points=[[0,0.5],[1,0.5]];portConstraint=eastwest;whiteSpace=wrap;html=1;" vertex="1" parent="yx8-Jv_AAqIwQ5a-q-sv-26">
          <mxGeometry y="40" width="195" height="26" as="geometry" />
        </mxCell>
        <mxCell id="yx8-Jv_AAqIwQ5a-q-sv-54" value="" style="endArrow=open;endFill=1;endSize=12;html=1;rounded=0;exitX=-0.006;exitY=0.933;exitDx=0;exitDy=0;exitPerimeter=0;entryX=1.014;entryY=1.048;entryDx=0;entryDy=0;entryPerimeter=0;" edge="1" parent="yx8-Jv_AAqIwQ5a-q-sv-3" target="yx8-Jv_AAqIwQ5a-q-sv-13">
          <mxGeometry width="160" relative="1" as="geometry">
            <mxPoint x="298.8599999999999" y="124.25800000000004" as="sourcePoint" />
            <mxPoint x="160" y="110" as="targetPoint" />
          </mxGeometry>
        </mxCell>
        <mxCell id="yx8-Jv_AAqIwQ5a-q-sv-56" value="" style="endArrow=open;endFill=1;endSize=12;html=1;rounded=0;exitX=-0.006;exitY=0.933;exitDx=0;exitDy=0;exitPerimeter=0;entryX=1.014;entryY=1.087;entryDx=0;entryDy=0;entryPerimeter=0;" edge="1" parent="yx8-Jv_AAqIwQ5a-q-sv-3" target="yx8-Jv_AAqIwQ5a-q-sv-18">
          <mxGeometry width="160" relative="1" as="geometry">
            <mxPoint x="305" y="300" as="sourcePoint" />
            <mxPoint x="166" y="300" as="targetPoint" />
            <Array as="points">
              <mxPoint x="240" y="300" />
              <mxPoint x="240" y="404" />
            </Array>
          </mxGeometry>
        </mxCell>
        <mxCell id="yx8-Jv_AAqIwQ5a-q-sv-22" value="&amp;lt;&amp;lt;interface&amp;gt;&amp;gt;&lt;br&gt;ProductsRepo" style="swimlane;fontStyle=1;align=center;verticalAlign=top;childLayout=stackLayout;horizontal=1;startSize=40;horizontalStack=0;resizeParent=1;resizeParentMax=0;resizeLast=0;collapsible=1;marginBottom=0;whiteSpace=wrap;html=1;" vertex="1" parent="WIyWlLk6GJQsqaUBKTNV-1">
          <mxGeometry x="330" y="650" width="190" height="92" as="geometry" />
        </mxCell>
        <mxCell id="yx8-Jv_AAqIwQ5a-q-sv-25" value="+ findByTitile(String): Product" style="text;strokeColor=none;fillColor=none;align=left;verticalAlign=top;spacingLeft=4;spacingRight=4;overflow=hidden;rotatable=0;points=[[0,0.5],[1,0.5]];portConstraint=eastwest;whiteSpace=wrap;html=1;" vertex="1" parent="yx8-Jv_AAqIwQ5a-q-sv-22">
          <mxGeometry y="40" width="190" height="26" as="geometry" />
        </mxCell>
        <mxCell id="yx8-Jv_AAqIwQ5a-q-sv-55" value="+ findByCategory(String): Product" style="text;strokeColor=none;fillColor=none;align=left;verticalAlign=top;spacingLeft=4;spacingRight=4;overflow=hidden;rotatable=0;points=[[0,0.5],[1,0.5]];portConstraint=eastwest;whiteSpace=wrap;html=1;" vertex="1" parent="yx8-Jv_AAqIwQ5a-q-sv-22">
          <mxGeometry y="66" width="190" height="26" as="geometry" />
        </mxCell>
        <mxCell id="yx8-Jv_AAqIwQ5a-q-sv-51" value="" style="endArrow=open;endFill=1;endSize=12;html=1;rounded=0;exitX=0.094;exitY=0.006;exitDx=0;exitDy=0;exitPerimeter=0;" edge="1" parent="WIyWlLk6GJQsqaUBKTNV-1" source="yx8-Jv_AAqIwQ5a-q-sv-45">
          <mxGeometry width="160" relative="1" as="geometry">
            <mxPoint x="290" y="290" as="sourcePoint" />
            <mxPoint x="410" y="230" as="targetPoint" />
          </mxGeometry>
        </mxCell>
        <mxCell id="yx8-Jv_AAqIwQ5a-q-sv-44" value="" style="endArrow=diamondThin;endFill=0;endSize=24;html=1;rounded=0;entryX=0.341;entryY=1.087;entryDx=0;entryDy=0;entryPerimeter=0;exitX=0;exitY=0.5;exitDx=0;exitDy=0;" edge="1" parent="WIyWlLk6GJQsqaUBKTNV-1" target="yx8-Jv_AAqIwQ5a-q-sv-41">
          <mxGeometry width="160" relative="1" as="geometry">
            <mxPoint x="330" y="711.1" as="sourcePoint" />
            <mxPoint x="159.03999999999996" y="479.996" as="targetPoint" />
            <Array as="points">
              <mxPoint x="310" y="711.1" />
              <mxPoint x="310" y="550" />
              <mxPoint x="159" y="550" />
            </Array>
          </mxGeometry>
        </mxCell>
      </root>
    </mxGraphModel>
  </diagram>
</mxfile>
